<?xml version="1.0" encoding="UTF-8"?>
<svg width="34px" height="36px" viewBox="0 0 34 36" version="1.1" xmlns="http://www.w3.org/2000/svg" xmlns:xlink="http://www.w3.org/1999/xlink">
    <title>icon/solarpanel</title>
    <g id="ANALYSE" stroke="none" stroke-width="1" fill-rule="evenodd" transform='translate(2,12)'>
        <g id="analyse" transform="translate(-610.000000, -444.000000)" fill-rule="nonzero" stroke-width="0.5">
            <g id="" transform="translate(611.000000, 445.000000)">
                <path d="M26.8097627,16.9499548 C27.6144217,16.9499548 28.2447602,16.3072879 28.2482949,15.5467263 L28.2489413,15.529047 C28.2566779,15.4156811 28.2914554,15.6779945 25.8311711,1.18032751 C25.7155178,0.499210169 25.1156552,3.90798505e-14 24.4124676,3.90798505e-14 L3.83725817,3.90798505e-14 C3.13411368,3.90798505e-14 2.53425109,0.499210169 2.41859779,1.18032751 C-0.146422601,16.2949165 0.0019050208,15.3644312 0.00147396116,15.5374585 C2.48689958e-14,16.3019859 0.632243533,16.9499548 1.44043725,16.9499548 L26.8097627,16.9499548 Z M17.2118318,7.06248115 L11.0378939,7.06248115 L11.4691691,2.82499246 L16.7805998,2.82499246 L17.2118318,7.06248115 Z M8.87018121,7.06248115 L4.33651145,7.06248115 L5.05556203,2.82499246 L9.30141328,2.82499246 L8.87018121,7.06248115 Z M23.9132574,7.06248115 L19.3795877,7.06248115 L18.9483125,2.82499246 L23.1942068,2.82499246 L23.9132574,7.06248115 Z M8.15113063,14.1249623 L3.13807943,14.1249623 L3.97718013,9.18122549 L8.65478071,9.18122549 L8.15113063,14.1249623 Z M17.9308824,14.1249623 L10.3188433,14.1249623 L10.8220624,9.18122549 L17.4277065,9.18122549 L17.9308824,14.1249623 Z M25.1121205,14.1249623 L20.0986383,14.1249623 L19.5954192,9.18122549 L24.2730198,9.18122549 L25.1121205,14.1249623 Z M9.18222529,22.5999401 L19.0679747,22.5884735 C19.4572646,22.5880424 19.7728865,22.2724206 19.7733175,21.8830875 L19.7750853,20.4825316 C19.7755159,20.0918623 19.4586009,19.7749472 19.0679747,19.7753783 L16.9505235,19.7775767 L16.9505235,18.362451 L11.3005386,18.362451 L11.3005386,19.784215 L9.18269945,19.7864134 C8.79336638,19.7868445 8.47774452,20.1024663 8.47731346,20.4922305 L8.47511461,21.8928294 C8.47468399,22.2834557 8.79159904,22.6003707 9.18222529,22.5999401 Z"></path>
            </g>
        </g>
    </g>
</svg>