<?xml version="1.0" encoding="UTF-8"?>
<svg width="34px" height="36px" viewBox="0 0 34 36" version="1.1" xmlns="http://www.w3.org/2000/svg" xmlns:xlink="http://www.w3.org/1999/xlink">
    <title>icon/house</title>
    <g transform='translate(6,11)'>
        <path fill-rule="evenodd" d="M22.556 23.438V8.854l-8.342-7.206c-.143-.114-.285-.114-.428 0L5.444 8.854v14.584h5.134v-7.55c0-.19.062-.352.187-.486.125-.133.276-.2.454-.2h5.561c.179 0 .33.067.455.2.125.134.187.296.187.486v7.55h5.134zm5.335-12.556v.056c.073.037.109.102.109.195 0 .093-.018.177-.055.251l-.71.893c-.037.074-.101.112-.192.112s-.173-.038-.246-.112L24.5 10.435v12.78c0 .483-.173.902-.52 1.255-.346.354-.756.53-1.23.53h-6.344c-.182 0-.337-.065-.465-.195-.127-.13-.19-.288-.19-.474v-7.366h-3.5v7.366c0 .186-.065.344-.192.474-.128.13-.283.195-.465.195H5.25c-.474 0-.884-.176-1.23-.53-.346-.353-.52-.772-.52-1.255v-12.78l-2.296 1.842c-.074.074-.156.102-.247.084-.09-.019-.155-.066-.191-.14l-.711-.837C.018 11.31 0 11.226 0 11.134c0-.094.036-.178.11-.252L12.905.391C13.234.13 13.6 0 14 0c.401 0 .766.13 1.094.39l7.656 6.306v-2.79c0-.111.036-.195.11-.25.072-.057.145-.084.218-.084h1.094c.073 0 .146.027.219.083.072.056.109.14.109.251v4.242l3.39 2.734z"/>
    </g>
</svg>
