
<?xml version="1.0" encoding="UTF-8"?>
<svg width="34px" height="36px" viewBox="0 0 34 36" version="1.1" xmlns="http://www.w3.org/2000/svg" xmlns:xlink="http://www.w3.org/1999/xlink">
    <title>icon/house</title>
    <g transform='translate(6,8)'>
        <path fill-rule="evenodd" d="M19.072 13.246L17.996 9.81h3.738v2.585h1.508V9.81h1.292V8.303l-8.396-4.426L14.924 0h-1.847l-1.215 3.877-8.396 4.426V9.81h.862v2.585h1.508V9.81h4.168l-1.076 3.436L0 17.672v1.507h1.293v2.585H2.8v-2.585h4.27L4.308 28h1.851L14 22.673 21.841 28h1.852l-2.763-8.82h4.27v2.584h1.508v-2.585H28v-1.507l-8.928-4.426zM9.32 17.672l.893-2.918h7.575l.893 2.918H9.32zm7.14 1.507L14 20.85l-2.459-1.67h4.918zm5.214-10.876h-4.15l-.82-2.62 4.97 2.62zm-5.861 0h-3.626l.893-2.918h1.84l.893 2.918zm-1.354-4.426h-.917L14 2.378l.459 1.499zM6.327 8.303l4.97-2.62-.82 2.62h-4.15zm9.947 1.507l1.052 3.436h-6.652l1.051-3.436h4.55zM3.042 17.672l5.327-2.64-.827 2.64h-4.5zm3.821 8.027l1.996-6.52 3.8 2.582L6.863 25.7zm8.479-3.938l3.8-2.582 1.995 6.52-5.795-3.938zm5.116-4.09l-.827-2.64 5.327 2.64h-4.5z"/>
    </g>
</svg>
