<?xml version="1.0" encoding="UTF-8"?>
<svg width="34px" height="36px" viewBox="0 0 34 36" version="1.1" xmlns="http://www.w3.org/2000/svg" xmlns:xlink="http://www.w3.org/1999/xlink">
    <title>icon/strommast night</title>
    <g id="ANALYSE" stroke="none" stroke-width="1" fill-rule="evenodd" transform='translate(3,1)'>
        <g id="analyse" transform="translate(-610.000000, -565.000000)">
            <g id="Group" transform="translate(608.000000, 564.000000)">
                <path d="M15.0766,8.0004 L13.8626,11.8774 L5.4666,16.3024 L5.4666,17.8094 L6.3276,17.8094 L6.3276,20.3954 L7.8356,20.3954 L7.8356,17.8094 L12.0036,17.8094 L10.9286,21.2464 L1.9996,25.6714 L1.9996,27.1794 L3.2926,27.1794 L3.2926,29.7644 L4.8006,29.7644 L4.8006,27.1794 L9.0696,27.1794 L6.3076,36.0004 L8.1596,36.0004 L15.9996,30.6734 L23.8416,36.0004 L25.6926,36.0004 L22.9296,27.1794 L27.2006,27.1794 L27.2006,29.7644 L28.7076,29.7644 L28.7076,27.1794 L29.9996,27.1794 L29.9996,25.6714 L21.0726,21.2464 L19.9956,17.8094 L23.7346,17.8094 L23.7346,20.3954 L25.2416,20.3954 L25.2416,17.8094 L26.5336,17.8094 L26.5336,16.3024 L18.1376,11.8754 L16.9236,8.0004 L15.0766,8.0004 Z M15.9996,10.3784 L16.4586,11.8754 L15.5416,11.8754 L15.9996,10.3784 Z M15.0806,13.3854 L16.9206,13.3854 L17.8126,16.3024 L14.1866,16.3024 L15.0806,13.3854 Z M18.7036,13.6834 L23.6736,16.3024 L19.5236,16.3024 L18.7036,13.6834 Z M13.2976,13.6834 L12.4766,16.3024 L8.3266,16.3024 L13.2976,13.6834 Z M13.7256,17.8094 L18.2746,17.8094 L19.3266,21.2464 L12.6746,21.2464 L13.7256,17.8094 Z M12.2126,22.7544 L19.7876,22.7544 L20.6806,25.6714 L11.3196,25.6714 L12.2126,22.7544 Z M21.6316,23.0314 L26.9586,25.6714 L22.4586,25.6714 L21.6316,23.0314 Z M10.3696,23.0314 L9.5426,25.6714 L5.0416,25.6714 L10.3696,23.0314 Z M17.3416,29.7604 L21.1416,27.1794 L23.1366,33.6984 L17.3416,29.7604 Z M13.5416,27.1794 L18.4596,27.1794 L15.9996,28.8494 L13.5416,27.1794 Z M10.8586,27.1794 L14.6586,29.7604 L8.8626,33.6984 L10.8586,27.1794 Z" id="Fill-1"></path>
                <path d="M23.6976,6.3401 C23.6976,3.5761 25.9376,1.3401 28.6976,1.3401 C28.9516,1.3401 29.3616,1.3771 29.6116,1.4241 C29.8266,1.4631 29.8736,1.7501 29.6846,1.8581 C28.4576,2.5561 27.7026,3.8541 27.7026,5.2641 C27.7026,7.7131 29.9296,9.5721 32.3556,9.1111 C32.5696,9.0701 32.7196,9.3191 32.5816,9.4881 C31.6486,10.6391 30.2396,11.3401 28.6976,11.3401 C25.9346,11.3401 23.6976,9.1001 23.6976,6.3401" id="Fill-2"></path>
            </g>
        </g>
    </g>
</svg>