<?xml version="1.0" encoding="UTF-8"?>
<svg width="34px" height="36px" viewBox="0 0 34 36" version="1.1" xmlns="http://www.w3.org/2000/svg" xmlns:xlink="http://www.w3.org/1999/xlink">
    <title>icon/strommast day</title>
    <g id="ANALYSE" stroke="none" stroke-width="1" fill-rule="evenodd">
        <g id="analyse" transform="translate(-608.000000, -497.000000)">
            <g id="Group-4" transform="translate(608.000000, 497.000000)">
                <path d="M13.0766,8.0004 L11.8626,11.8774 L3.4666,16.3024 L3.4666,17.8094 L4.3276,17.8094 L4.3276,20.3954 L5.8356,20.3954 L5.8356,17.8094 L10.0036,17.8094 L8.9286,21.2464 L-0.0004,25.6714 L-0.0004,27.1794 L1.2926,27.1794 L1.2926,29.7644 L2.8006,29.7644 L2.8006,27.1794 L7.0696,27.1794 L4.3076,36.0004 L6.1596,36.0004 L13.9996,30.6734 L21.8416,36.0004 L23.6926,36.0004 L20.9296,27.1794 L25.2006,27.1794 L25.2006,29.7644 L26.7076,29.7644 L26.7076,27.1794 L27.9996,27.1794 L27.9996,25.6714 L19.0726,21.2464 L17.9956,17.8094 L21.7346,17.8094 L21.7346,20.3954 L23.2416,20.3954 L23.2416,17.8094 L24.5336,17.8094 L24.5336,16.3024 L16.1376,11.8754 L14.9236,8.0004 L13.0766,8.0004 Z M13.9996,10.3784 L14.4586,11.8754 L13.5416,11.8754 L13.9996,10.3784 Z M13.0806,13.3854 L14.9206,13.3854 L15.8126,16.3024 L12.1866,16.3024 L13.0806,13.3854 Z M16.7036,13.6834 L21.6736,16.3024 L17.5236,16.3024 L16.7036,13.6834 Z M11.2976,13.6834 L10.4766,16.3024 L6.3266,16.3024 L11.2976,13.6834 Z M11.7256,17.8094 L16.2746,17.8094 L17.3266,21.2464 L10.6746,21.2464 L11.7256,17.8094 Z M10.2126,22.7544 L17.7876,22.7544 L18.6806,25.6714 L9.3196,25.6714 L10.2126,22.7544 Z M19.6316,23.0314 L24.9586,25.6714 L20.4586,25.6714 L19.6316,23.0314 Z M8.3696,23.0314 L7.5426,25.6714 L3.0416,25.6714 L8.3696,23.0314 Z M15.3416,29.7604 L19.1416,27.1794 L21.1366,33.6984 L15.3416,29.7604 Z M11.5416,27.1794 L16.4596,27.1794 L13.9996,28.8494 L11.5416,27.1794 Z M8.8586,27.1794 L12.6586,29.7604 L6.8626,33.6984 L8.8586,27.1794 Z" id="Fill-1"></path>
                <path d="M29.4164,6.5901 C29.4164,7.8301 28.4064,8.8401 27.1664,8.8401 C25.9264,8.8401 24.9164,7.8301 24.9164,6.5901 C24.9164,5.3501 25.9264,4.3401 27.1664,4.3401 C28.4064,4.3401 29.4164,5.3501 29.4164,6.5901 M29.2874,4.4691 C28.1184,3.2991 26.2144,3.2991 25.0454,4.4691 C23.8754,5.6391 23.8754,7.5411 25.0454,8.7111 C26.2144,9.8811 28.1184,9.8811 29.2874,8.7111 C30.4574,7.5411 30.4574,5.6391 29.2874,4.4691 M32.9374,6.9551 L30.7174,8.0651 L31.5024,10.4171 C31.6104,10.7341 31.3084,11.0361 30.9894,10.9311 L28.6364,10.1461 L27.5274,12.3651 C27.3774,12.6651 26.9504,12.6651 26.8004,12.3651 L25.6924,10.1461 L23.3394,10.9311 C23.0224,11.0381 22.7204,10.7361 22.8254,10.4171 L23.6104,8.0621 L21.3914,6.9531 C21.0914,6.8031 21.0914,6.3771 21.3914,6.2271 L23.6104,5.1151 L22.8254,2.7631 C22.7184,2.4461 23.0204,2.1441 23.3394,2.2491 L25.6944,3.0341 L26.8034,0.8151 C26.9534,0.5151 27.3794,0.5151 27.5294,0.8151 L28.6404,3.0371 L30.9934,2.2521 C31.3104,2.1441 31.6124,2.4461 31.5074,2.7651 L30.7224,5.1181 L32.9414,6.2271 C33.2414,6.3771 33.2414,6.8031 32.9374,6.9551" id="Fill-2"></path>
            </g>
        </g>
    </g>
</svg>